<?xml version="1.0" encoding="utf-8"?>
<!-- Generator: Adobe Illustrator 25.2.1, SVG Export Plug-In . SVG Version: 6.00 Build 0)  -->
<svg version="1.1" id="Layer_1" xmlns="http://www.w3.org/2000/svg" xmlns:xlink="http://www.w3.org/1999/xlink" x="0px" y="0px"
	 viewBox="0 0 250 41" style="enable-background:new 0 0 250 41;" xml:space="preserve">
<style type="text/css">
	.st0{fill:none;}
	.st1{clip-path:url(#SVGID_2_);}
	.st2{filter:url(#Adobe_OpacityMaskFilter);}
	.st3{mask:url(#_x35_99c7b2c00_2_);}
	.st4{fill:url(#SVGID_3_);}
	.st5{clip-path:url(#SVGID_5_);}
	.st6{fill:url(#SVGID_6_);}
	.st7{fill:#61A60E;}
	.st8{fill:#FFFFFF;}
</style>
<pattern  y="41" width="249.3" height="41.3" patternUnits="userSpaceOnUse" id="_x37_19d0f35ec" viewBox="55.8 -50.5 249.3 41.3" style="overflow:visible;">
	<g>
		<rect x="55.8" y="-50.5" class="st0" width="249.3" height="41.3"/>
		<g>
			<g>
				<defs>
					<rect id="SVGID_1_" x="55.8" y="-50.5" width="249.3" height="41.3"/>
				</defs>
				<clipPath id="SVGID_2_">
					<use xlink:href="#SVGID_1_"  style="overflow:visible;"/>
				</clipPath>
				<g class="st1">
					<defs>
						<filter id="Adobe_OpacityMaskFilter" filterUnits="userSpaceOnUse" x="0" y="0" width="361" height="59.5">
							<feColorMatrix  type="matrix" values="1 0 0 0 0  0 1 0 0 0  0 0 1 0 0  0 0 0 1 0"/>
						</filter>
					</defs>
					<mask maskUnits="userSpaceOnUse" x="0" y="0" width="361" height="59.5" id="_x35_99c7b2c00_2_">
						<g class="st2">
							<g>
								
									<image style="overflow:visible;enable-background:new    ;" width="187" height="31" xlink:href="4983AE7B4DEA5C77.png"  transform="matrix(1.3333 0 0 -1.3333 55.8315 -9.2)">
								</image>
							</g>
						</g>
					</mask>
					<g class="st3">
						
							<linearGradient id="SVGID_3_" gradientUnits="userSpaceOnUse" x1="15.9784" y1="-756.5333" x2="266.645" y2="-756.5333" gradientTransform="matrix(0.9947 0 0 1 39.9381 726.7733)">
							<stop  offset="0" style="stop-color:#61A60E"/>
							<stop  offset="7.812500e-03" style="stop-color:#61A60E"/>
							<stop  offset="1.562500e-02" style="stop-color:#60A50E"/>
							<stop  offset="2.343750e-02" style="stop-color:#5FA40E"/>
							<stop  offset="3.125000e-02" style="stop-color:#5EA40E"/>
							<stop  offset="3.906250e-02" style="stop-color:#5DA30F"/>
							<stop  offset="4.687500e-02" style="stop-color:#5DA30F"/>
							<stop  offset="5.468750e-02" style="stop-color:#5CA20F"/>
							<stop  offset="6.250000e-02" style="stop-color:#5BA10F"/>
							<stop  offset="7.031250e-02" style="stop-color:#5AA10F"/>
							<stop  offset="7.812500e-02" style="stop-color:#5AA00F"/>
							<stop  offset="8.593750e-02" style="stop-color:#599F0F"/>
							<stop  offset="9.375000e-02" style="stop-color:#589F0F"/>
							<stop  offset="0.1016" style="stop-color:#579E10"/>
							<stop  offset="0.1094" style="stop-color:#579D10"/>
							<stop  offset="0.1172" style="stop-color:#569D10"/>
							<stop  offset="0.125" style="stop-color:#559C10"/>
							<stop  offset="0.1328" style="stop-color:#549C10"/>
							<stop  offset="0.1406" style="stop-color:#549B10"/>
							<stop  offset="0.1484" style="stop-color:#539A10"/>
							<stop  offset="0.1562" style="stop-color:#529A10"/>
							<stop  offset="0.1641" style="stop-color:#519911"/>
							<stop  offset="0.1719" style="stop-color:#519811"/>
							<stop  offset="0.1797" style="stop-color:#509811"/>
							<stop  offset="0.1875" style="stop-color:#4F9711"/>
							<stop  offset="0.1953" style="stop-color:#4E9611"/>
							<stop  offset="0.2031" style="stop-color:#4E9611"/>
							<stop  offset="0.2109" style="stop-color:#4D9511"/>
							<stop  offset="0.2188" style="stop-color:#4C9511"/>
							<stop  offset="0.2266" style="stop-color:#4B9412"/>
							<stop  offset="0.2344" style="stop-color:#4B9312"/>
							<stop  offset="0.2422" style="stop-color:#4A9312"/>
							<stop  offset="0.25" style="stop-color:#499212"/>
							<stop  offset="0.2578" style="stop-color:#489112"/>
							<stop  offset="0.2656" style="stop-color:#479112"/>
							<stop  offset="0.2734" style="stop-color:#479012"/>
							<stop  offset="0.2812" style="stop-color:#468F12"/>
							<stop  offset="0.2891" style="stop-color:#458F13"/>
							<stop  offset="0.2969" style="stop-color:#448E13"/>
							<stop  offset="0.3047" style="stop-color:#448E13"/>
							<stop  offset="0.3125" style="stop-color:#438D13"/>
							<stop  offset="0.3203" style="stop-color:#428C13"/>
							<stop  offset="0.3281" style="stop-color:#418C13"/>
							<stop  offset="0.3359" style="stop-color:#418B13"/>
							<stop  offset="0.3438" style="stop-color:#408A13"/>
							<stop  offset="0.3516" style="stop-color:#3F8A14"/>
							<stop  offset="0.3594" style="stop-color:#3E8914"/>
							<stop  offset="0.3672" style="stop-color:#3E8814"/>
							<stop  offset="0.375" style="stop-color:#3D8814"/>
							<stop  offset="0.3828" style="stop-color:#3C8714"/>
							<stop  offset="0.3906" style="stop-color:#3B8714"/>
							<stop  offset="0.3984" style="stop-color:#3B8614"/>
							<stop  offset="0.4062" style="stop-color:#3A8515"/>
							<stop  offset="0.4141" style="stop-color:#398515"/>
							<stop  offset="0.4219" style="stop-color:#388415"/>
							<stop  offset="0.4297" style="stop-color:#388315"/>
							<stop  offset="0.4375" style="stop-color:#378315"/>
							<stop  offset="0.4453" style="stop-color:#368215"/>
							<stop  offset="0.4531" style="stop-color:#358115"/>
							<stop  offset="0.4609" style="stop-color:#348115"/>
							<stop  offset="0.4688" style="stop-color:#348016"/>
							<stop  offset="0.4766" style="stop-color:#338016"/>
							<stop  offset="0.4844" style="stop-color:#327F16"/>
							<stop  offset="0.4922" style="stop-color:#317E16"/>
							<stop  offset="0.5" style="stop-color:#317E16"/>
							<stop  offset="0.5078" style="stop-color:#307D16"/>
							<stop  offset="0.5156" style="stop-color:#2F7C16"/>
							<stop  offset="0.5234" style="stop-color:#2E7C16"/>
							<stop  offset="0.5312" style="stop-color:#2E7B17"/>
							<stop  offset="0.5391" style="stop-color:#2D7A17"/>
							<stop  offset="0.5469" style="stop-color:#2C7A17"/>
							<stop  offset="0.5547" style="stop-color:#2B7917"/>
							<stop  offset="0.5625" style="stop-color:#2B7917"/>
							<stop  offset="0.5703" style="stop-color:#2A7817"/>
							<stop  offset="0.5781" style="stop-color:#297717"/>
							<stop  offset="0.5859" style="stop-color:#287717"/>
							<stop  offset="0.5938" style="stop-color:#287618"/>
							<stop  offset="0.6016" style="stop-color:#277518"/>
							<stop  offset="0.6094" style="stop-color:#267518"/>
							<stop  offset="0.6172" style="stop-color:#257418"/>
							<stop  offset="0.625" style="stop-color:#257418"/>
							<stop  offset="0.6328" style="stop-color:#247318"/>
							<stop  offset="0.6406" style="stop-color:#237218"/>
							<stop  offset="0.6484" style="stop-color:#227218"/>
							<stop  offset="0.6562" style="stop-color:#227119"/>
							<stop  offset="0.6641" style="stop-color:#217019"/>
							<stop  offset="0.6719" style="stop-color:#207019"/>
							<stop  offset="0.6797" style="stop-color:#1F6F19"/>
							<stop  offset="0.6875" style="stop-color:#1E6E19"/>
							<stop  offset="0.6953" style="stop-color:#1E6E19"/>
							<stop  offset="0.7031" style="stop-color:#1D6D19"/>
							<stop  offset="0.7109" style="stop-color:#1C6D19"/>
							<stop  offset="0.7188" style="stop-color:#1B6C1A"/>
							<stop  offset="0.7266" style="stop-color:#1B6B1A"/>
							<stop  offset="0.7344" style="stop-color:#1A6B1A"/>
							<stop  offset="0.7422" style="stop-color:#196A1A"/>
							<stop  offset="0.75" style="stop-color:#18691A"/>
							<stop  offset="0.7578" style="stop-color:#18691A"/>
							<stop  offset="0.7656" style="stop-color:#17681A"/>
							<stop  offset="0.7734" style="stop-color:#16671A"/>
							<stop  offset="0.7812" style="stop-color:#15671B"/>
							<stop  offset="0.7891" style="stop-color:#15661B"/>
							<stop  offset="0.7969" style="stop-color:#14661B"/>
							<stop  offset="0.8047" style="stop-color:#13651B"/>
							<stop  offset="0.8125" style="stop-color:#12641B"/>
							<stop  offset="0.8203" style="stop-color:#12641B"/>
							<stop  offset="0.8281" style="stop-color:#11631B"/>
							<stop  offset="0.8359" style="stop-color:#10621B"/>
							<stop  offset="0.8438" style="stop-color:#0F621C"/>
							<stop  offset="0.8516" style="stop-color:#0F611C"/>
							<stop  offset="0.8594" style="stop-color:#0E601C"/>
							<stop  offset="0.8672" style="stop-color:#0D601C"/>
							<stop  offset="0.875" style="stop-color:#0C5F1C"/>
							<stop  offset="0.8828" style="stop-color:#0C5F1C"/>
							<stop  offset="0.8906" style="stop-color:#0B5E1C"/>
							<stop  offset="0.8984" style="stop-color:#0A5D1C"/>
							<stop  offset="0.9062" style="stop-color:#095D1D"/>
							<stop  offset="0.9141" style="stop-color:#085C1D"/>
							<stop  offset="0.9219" style="stop-color:#085B1D"/>
							<stop  offset="0.9297" style="stop-color:#075B1D"/>
							<stop  offset="0.9375" style="stop-color:#065A1D"/>
							<stop  offset="0.9453" style="stop-color:#05591D"/>
							<stop  offset="0.9531" style="stop-color:#05591D"/>
							<stop  offset="0.9609" style="stop-color:#04581D"/>
							<stop  offset="0.9688" style="stop-color:#03581E"/>
							<stop  offset="0.9766" style="stop-color:#02571E"/>
							<stop  offset="0.9844" style="stop-color:#02561E"/>
							<stop  offset="0.9922" style="stop-color:#01561E"/>
							<stop  offset="1" style="stop-color:#00551E"/>
						</linearGradient>
						<rect y="-59.5" class="st4" width="361" height="59.5"/>
					</g>
				</g>
			</g>
		</g>
	</g>
</pattern>
<g>
	<defs>
		<rect id="SVGID_4_" x="0.7" width="248" height="40.7"/>
	</defs>
	<clipPath id="SVGID_5_">
		<use xlink:href="#SVGID_4_"  style="overflow:visible;"/>
	</clipPath>
	<g class="st5">
		<pattern  id="SVGID_6_" xlink:href="#_x37_19d0f35ec" patternTransform="matrix(1.3297 0 0 1.3226 2866.7288 3427.4443)">
		</pattern>
		<path class="st6" d="M0.7,0h248v40.7H0.7V0z"/>
	</g>
</g>
<path class="st7" d="M31.6,14.9l0.3-1.9H21.6c-3.1,0-5.3,1.6-5.8,4.8l-2.3,12.8h2.1l1.8-10.3c0.8-4.4,1.7-5.4,6.1-5.4H31.6z"/>
<path class="st7" d="M25.1,19.1c-2.4,0-2.8,0.7-3.3,3.1l-1.5,8.3h0.5c4.6,0,8.6-3.3,9.4-7.9l0.6-3.5H25.1z"/>
<path class="st7" d="M9.8,16.1c1.1-5.3,2.3-8.7,10.8-8.7H33l0.6-3.7H17.4c-5.9,0-10.1,3.6-10.9,8.5L3.2,30.6h4L9.8,16.1z"/>
<path class="st8" d="M243.1,5.8V4.1h-0.5V3.7h1.4v0.3h-0.6v1.8H243.1z M244.3,5.8V3.7h0.5l0.5,1.6h0l0.5-1.6h0.4v2.1H246V4.3h0
	l-0.5,1.6h-0.3l-0.5-1.6h0v1.6H244.3z"/>
<path d="M122.9,30.6h-2.2l4.7-26.8h9.9c1.9,0,3.2,0.5,4.1,1.6c0.9,1.1,1.2,2.5,0.8,4.4l-0.8,4.4c-0.3,1.5-0.9,2.8-1.8,3.8
	c-0.9,1-2,1.6-3.4,2l-0.1,0l3.2,10.6H135c-0.5,0-0.8-0.2-0.9-0.6l-2.8-9.8l-5.8,0l-1.7,9.6C123.7,30.2,123.3,30.6,122.9,30.6z
	 M132.5,17.7c1.9,0,3.8-1.6,4.1-3.5l0.8-4.4c0.4-2.3-0.5-3.5-2.9-3.5l-6.5,0l-2,11.4L132.5,17.7z"/>
<path d="M154.3,30.6h-9.2c-1.9,0-3.2-0.5-4.1-1.6s-1.2-2.5-0.8-4.4l1.5-8.7c0.3-1.9,1.1-3.4,2.4-4.4c1.3-1.1,2.8-1.6,4.7-1.6h3.4
	c1.9,0,3.2,0.5,4.1,1.6c0.9,1.1,1.1,2.5,0.8,4.4l-1,5.8l-12.5,0l-0.5,2.8c-0.4,2.4,0.5,3.5,2.8,3.5h8c0.4,0,0.7,0.4,0.7,0.8
	L154.3,30.6z M144,19.5h9.6l0.6-3.5c0.4-2.3-0.5-3.5-2.8-3.5h-2.8c-2.3,0-3.6,1.2-4,3.5L144,19.5z"/>
<path d="M177.3,30.6h-3L178,9.9h2.2c0.4,0,0.7,0.4,0.7,0.8l-0.2,1.3c0,0,1.1-2.2,4.7-2.2h2.3c1.8,0,3.2,0.5,4,1.6
	c0.8,1.1,1.1,2.5,0.8,4.4l-2.6,14.7h-3l2.6-14.6c0.4-2.4-0.5-3.5-2.8-3.5h-2.3c-1.2,0-2.2,0.3-3,1c-0.8,0.7-1.3,1.6-1.5,2.8
	L177.3,30.6z"/>
<path d="M201.7,30.6h-3.5c-1.9,0-3.2-0.5-4.1-1.6c-0.9-1.1-1.2-2.5-0.8-4.4l1.5-8.7c0.3-1.9,1.1-3.4,2.4-4.4
	c1.3-1.1,2.8-1.6,4.7-1.6h3.5c1.9,0,3.2,0.5,4.1,1.6c0.9,1.1,1.2,2.5,0.8,4.4l-1.5,8.7c-0.3,1.9-1.1,3.4-2.4,4.4
	C205.1,30,203.6,30.6,201.7,30.6z M199,28h2.8c2.3,0,3.6-1.2,4-3.5l1.5-8.5c0.4-2.3-0.5-3.5-2.8-3.5h-2.8c-2.3,0-3.6,1.2-4,3.5
	l-1.5,8.5C195.8,26.8,196.7,28,199,28z"/>
<path d="M213.3,30.6h-3L214,9.9h2.2c0.4,0,0.7,0.4,0.7,0.8l-0.2,1.2c0,0,0.7-0.8,1.9-1.4c0.8-0.4,1.8-0.6,2.8-0.6h2.1l-0.5,2.6
	l-2.7,0c-1.2,0-2.2,0.4-3,1.1c-0.8,0.7-1.3,1.7-1.5,3L213.3,30.6z"/>
<path d="M238.1,4.5l-1.3,7.5c0,0-0.8-2.1-4-2.1h-2.4c-1.8,0-3.4,0.5-4.6,1.6c-1.2,1.1-2,2.5-2.3,4.4l-1.5,8.7
	c-0.3,1.9-0.1,3.4,0.8,4.4c0.8,1.1,2.2,1.6,4,1.6h2.4c2.7,0,4.7-2.2,4.7-2.2l-0.2,1.3c-0.1,0.4,0.2,0.8,0.7,0.8h2.1l4.7-26.8H239
	C238.6,3.7,238.2,4.1,238.1,4.5z M234.6,24.2c-0.2,1.2-0.7,2.1-1.5,2.8c-0.8,0.7-1.8,1-3,1h-2.5c-2.2,0-3.2-1.2-2.8-3.5l1.5-8.4
	c0.4-2.4,1.8-3.5,4-3.5h2.5c1.2,0,2.1,0.3,2.6,1c0.5,0.7,0.7,1.6,0.5,2.8L234.6,24.2z"/>
<path d="M169.8,17.7l5.8-7.8h-3.4l-3.3,4.9L169.8,17.7z"/>
<path d="M167.2,20.1l-3.3-9.6c-0.2-0.4-0.4-0.6-0.8-0.6h-2.9l4,10.1l-7.9,10.5h2.9c0.3,0,0.5-0.1,0.7-0.3L167.2,20.1z"/>
<path d="M167,25.2l1.7,4.8c0.2,0.4,0.4,0.6,0.7,0.6h3l-3.3-8.3L167,25.2z"/>
<path d="M70.1,30.6h-9.8c-2.1,0-3.7-0.6-4.7-1.7c-1-1.1-1.3-2.8-0.9-4.9l1.3-7.5c0.4-2.1,1.2-3.8,2.6-4.9c1.4-1.1,3.1-1.7,5.3-1.7
	h3.2c2.1,0,3.7,0.6,4.7,1.7c1,1.1,1.3,2.8,0.9,4.9l-0.9,4.9c-0.1,0.6-0.7,1.1-1.3,1.1l-10.4,0l-0.2,1.3c-0.1,0.8-0.1,1.4,0.2,1.8
	c0.3,0.4,0.9,0.5,1.8,0.5h8c0.6,0,1,0.5,0.9,1.1L70.1,30.6z M60.8,19h6.4l0.4-2.4c0.2-0.9,0.1-1.5-0.2-1.8c-0.3-0.4-0.9-0.5-1.7-0.5
	H64c-0.9,0-1.5,0.2-1.9,0.5c-0.4,0.3-0.7,1-0.8,1.8L60.8,19z"/>
<path d="M80,30.5h-1.3c-2.1,0-3.6-0.6-4.4-1.7c-0.9-1.1-1.1-2.8-0.7-4.9l1.3-7.4c0.4-2.1,1.2-3.8,2.6-4.9c1.4-1.1,3.1-1.7,5.3-1.7
	h10.3l-3.8,21.8c-0.4,2.1-1.2,3.7-2.6,4.9c-1.4,1.1-3.1,1.7-5.2,1.7h-8.6l0.6-3.4c0.1-0.6,0.7-1.1,1.3-1.1h6.7
	c0.9,0,1.5-0.2,1.9-0.5c0.4-0.4,0.7-1,0.9-1.8l0.5-3.1c0,0-0.8,1.1-2,1.7C81.6,30.4,80.8,30.5,80,30.5z M85.4,23l1.5-8.7h-4.3
	c-0.9,0-1.5,0.2-1.9,0.5c-0.4,0.4-0.7,1-0.9,1.8l-1.2,7c-0.2,0.9-0.1,1.5,0.2,1.8c0.3,0.3,0.9,0.5,1.7,0.5h1.5
	C84,26,85.1,25,85.4,23z"/>
<path d="M114.7,30.6h-4.1l4.6-25.8c0.1-0.6,0.7-1.1,1.3-1.1h4.1l-4.5,25.8C115.8,30.1,115.3,30.6,114.7,30.6z"/>
<path d="M97.7,30.5H99c0.8,0,1.7-0.2,2.5-0.6c1.2-0.6,2-1.7,2-1.7l-0.2,1.2c-0.1,0.6,0.3,1.1,0.9,1.1h4.1L112,9.9h-10.3
	c-2.1,0-3.9,0.6-5.3,1.7c-1.4,1.1-2.2,2.8-2.6,4.9l-1.3,7.4c-0.4,2.1-0.1,3.8,0.7,4.9C94.1,30,95.6,30.5,97.7,30.5z M98.9,16.7
	c0.2-0.9,0.4-1.5,0.9-1.8c0.4-0.4,1.1-0.5,1.9-0.5h4.3l-1.5,8.7c-0.4,2-1.5,3-3.3,3h-1.5c-0.9,0-1.4-0.2-1.7-0.5
	c-0.3-0.3-0.4-1-0.2-1.8L98.9,16.7z"/>
<path d="M53.9,5.5c-1-1.2-2.5-1.7-4.6-1.7H38.8l-1.6,9.2h5.2l0.8-4.7h4.4c0.9,0,1.5,0.2,1.8,0.6c0.3,0.4,0.4,1,0.3,1.8L49,14.5
	c-0.1,0.8-0.4,1.4-0.9,1.8c-0.5,0.4-1.1,0.5-2,0.5h-9.6L34,30.6h4.1c0.6,0,1.2-0.5,1.3-1.1l1.5-8.5l3.2,0l2.5,8.8
	c0.1,0.4,0.2,0.6,0.4,0.7c0.2,0.1,0.5,0.2,1,0.2h4.5l-3.1-10.2l0.1,0c2.6-1,4.1-3,4.7-6.1l0.7-3.9C55.2,8.3,54.9,6.7,53.9,5.5z"/>
</svg>
